<?xml version="1.0" standalone="no"?>
<!DOCTYPE svg PUBLIC "-//W3C//DTD SVG 20010904//EN"
 "http://www.w3.org/TR/2001/REC-SVG-20010904/DTD/svg10.dtd">
<svg version="1.0" xmlns="http://www.w3.org/2000/svg"
 width="736.000000pt" height="1104.000000pt" viewBox="0 0 736.000000 1104.000000"
 preserveAspectRatio="xMidYMid meet">

<g transform="translate(0.000000,1104.000000) scale(0.100000,-0.100000)"
fill="#ffffff" stroke="none">
<path d="M2330 7974 c-445 -400 -1031 -782 -1507 -982 -136 -57 -358 -133
-445 -152 -32 -7 -58 -16 -58 -19 0 -9 242 -76 380 -105 123 -26 333 -58 520
-78 72 -8 258 -13 495 -13 388 0 480 6 711 45 l111 19 98 -54 c221 -122 466
-216 668 -257 149 -31 473 -33 607 -4 211 44 398 112 633 229 l179 88 71 -24
c333 -115 898 -148 1372 -82 139 20 250 41 390 76 133 33 485 149 485 160 0 3
-28 12 -62 18 -686 133 -1537 595 -2054 1117 l-100 102 -100 -64 c-233 -151
-497 -256 -759 -301 -133 -22 -420 -22 -564 1 -283 45 -615 164 -888 319 -45
26 -84 47 -85 47 -2 -1 -46 -39 -98 -86z"/>
<path d="M495 6375 c166 -306 397 -659 629 -960 100 -130 239 -295 248 -295 5
0 6 17 3 38 -9 64 -25 326 -32 512 -3 98 -9 183 -12 187 -3 5 -69 44 -146 87
-231 129 -441 276 -696 486 l-42 34 48 -89z"/>
<path d="M6775 6293 c-151 -106 -410 -255 -632 -365 -175 -86 -224 -114 -227
-131 -3 -12 -7 -94 -11 -182 -3 -88 -13 -251 -21 -363 -9 -111 -14 -207 -12
-213 7 -22 288 290 461 514 140 180 302 411 398 564 111 180 142 233 132 233
-4 -1 -44 -26 -88 -57z"/>
<path d="M2155 6299 c-111 -24 -275 -40 -409 -40 l-149 0 6 -287 c21 -913 122
-1754 293 -2437 39 -156 43 -170 109 -375 44 -136 65 -184 65 -150 0 8 16 314
35 680 19 366 55 1066 79 1555 25 490 48 929 52 978 7 98 10 96 -81 76z"/>
<path d="M5014 6218 c4 -51 15 -264 26 -473 11 -209 35 -686 55 -1060 57
-1107 85 -1649 85 -1670 0 -47 19 -2 86 210 217 682 359 1698 381 2722 l6 312
-145 0 c-146 0 -265 11 -395 37 -114 22 -106 28 -99 -78z"/>
<path d="M2466 5439 c-3 -13 -16 -271 -31 -574 -14 -302 -28 -569 -31 -593
l-5 -43 73 -33 c186 -85 496 -164 768 -196 155 -18 419 -23 585 -11 347 27
665 99 959 216 l68 28 -5 71 c-4 39 -19 315 -34 614 -24 480 -29 542 -43 542
-9 0 -79 -11 -156 -25 -537 -96 -1147 -114 -1674 -49 -112 14 -354 52 -437 70
-28 6 -33 3 -37 -17z"/>
</g>
</svg>
